<svg xmlns="http://www.w3.org/2000/svg" width="100%" height="100%" viewBox="0 0 60 60" fill="none">
    <g clip-path="url(#clip0_81_129)">
        <path d="M37.6002 35.58C36.8191 36.416 35.8768 37.0853 34.8302 37.5476C33.7836 38.0099 32.6543 38.2556 31.5102 38.27H29.6802C28.63 38.2887 27.5866 38.0976 26.6113 37.7078C25.6359 37.318 24.7482 36.7374 24.0002 36C22.5763 34.5301 21.7925 32.5562 21.8202 30.51V28C21.7945 25.96 22.5785 23.9931 24.0002 22.53C24.7453 21.795 25.6299 21.2164 26.6019 20.8283C27.5739 20.4401 28.6137 20.2503 29.6602 20.27H31.4902C32.6402 20.289 33.7744 20.5408 34.8245 21.01C35.8745 21.4791 36.8188 22.1561 37.6002 23C38.345 23.7899 39.2539 24.4069 40.2629 24.8077C41.2718 25.2086 42.3564 25.3834 43.4402 25.32C43.9326 25.3198 44.4242 25.2796 44.9102 25.2C44.718 24.7205 44.4907 24.256 44.2302 23.81L42.0602 20C41.0914 18.3158 39.6956 16.9169 38.0137 15.9443C36.3318 14.9716 34.4231 14.4596 32.4802 14.46H28.1602C26.2162 14.4609 24.3067 14.9734 22.6233 15.9458C20.94 16.9182 19.5422 18.3164 18.5702 20L16.4202 23.73C15.4476 25.4125 14.9355 27.3216 14.9355 29.265C14.9355 31.2084 15.4476 33.1174 16.4202 34.8L18.5702 38.54C19.5442 40.221 20.9428 41.6166 22.6258 42.5871C24.3089 43.5576 26.2174 44.069 28.1602 44.07H32.4802C34.4219 44.0703 36.3295 43.5594 38.0112 42.5886C39.6929 41.6179 41.0893 40.2216 42.0602 38.54L44.2202 34.81C44.4807 34.364 44.708 33.8994 44.9002 33.42C44.4142 33.3403 43.9226 33.3002 43.4302 33.3C42.3471 33.2352 41.2631 33.4085 40.2541 33.8076C39.2452 34.2067 38.3359 34.8219 37.5902 35.61" fill="black"/>
        <path d="M31.5096 22.5299H29.6796C28.9473 22.4967 28.2161 22.6146 27.5314 22.8763C26.8466 23.1381 26.2231 23.5379 25.6997 24.0511C25.1762 24.5642 24.764 25.1796 24.4887 25.859C24.2135 26.5383 24.081 27.2671 24.0996 27.9999V30.4999C24.0753 31.2356 24.2036 31.9683 24.4765 32.6519C24.7494 33.3355 25.1609 33.9552 25.6851 34.4719C26.2093 34.9886 26.8349 35.3911 27.5224 35.6541C28.2099 35.9171 28.9444 36.0348 29.6796 35.9999H31.5096C36.4196 35.9999 36.0296 30.9999 43.4396 30.9999C44.1406 30.9982 44.8403 31.0618 45.5296 31.1899C45.7595 29.9169 45.7595 28.6129 45.5296 27.3399C44.841 27.4729 44.1409 27.5366 43.4396 27.5299C36.0296 27.5299 36.4396 22.5299 31.5096 22.5299Z" fill="black"/>
        <path d="M49.7898 32.9999C48.5281 32.0729 47.0709 31.4469 45.5298 31.1699C45.397 31.9048 45.1927 32.6249 44.9198 33.3199C46.1874 33.5212 47.3898 34.0179 48.4298 34.7699C47.0903 39.1171 44.2356 42.8395 40.3845 45.2605C36.5334 47.6815 31.9415 48.6404 27.4433 47.9631C22.9451 47.2858 18.8392 45.0172 15.8718 41.5695C12.9043 38.1217 11.2723 33.7238 11.2723 29.1749C11.2723 24.626 12.9043 20.2281 15.8718 16.7804C18.8392 13.3327 22.9451 11.064 27.4433 10.3867C31.9415 9.70942 36.5334 10.6684 40.3845 13.0894C44.2356 15.5104 47.0903 19.2327 48.4298 23.5799C47.3922 24.3363 46.1887 24.8335 44.9198 25.0299C45.1928 25.7284 45.3971 26.4519 45.5298 27.1899C47.0689 26.9123 48.5252 26.2901 49.7898 25.3699C50.171 25.1232 50.4568 24.7542 50.6004 24.3235C50.744 23.8927 50.7367 23.426 50.5798 22.9999C49.08 18.1364 45.8852 13.9722 41.5759 11.2642C37.2666 8.55615 32.1288 7.4839 27.096 8.24227C22.0633 9.00065 17.4696 11.5393 14.1497 15.397C10.8298 19.2547 9.00391 24.1754 9.00391 29.2649C9.00391 34.3545 10.8298 39.2752 14.1497 43.1329C17.4696 46.9905 22.0633 49.5292 27.096 50.2876C32.1288 51.046 37.2666 49.9737 41.5759 47.2657C45.8852 44.5576 49.08 40.3935 50.5798 35.5299C50.7797 35.0845 50.8096 34.5813 50.6641 34.1153C50.5186 33.6493 50.2076 33.2525 49.7898 32.9999Z" fill="black"/>
        <path d="M44.9103 25.1499C44.4243 25.2295 43.9327 25.2696 43.4403 25.2699C42.3616 25.3409 41.2805 25.1745 40.2732 24.7822C39.2659 24.39 38.3569 23.7816 37.6103 22.9999C36.8262 22.1649 35.882 21.4964 34.8339 21.0342C33.7859 20.5721 32.6556 20.3257 31.5103 20.3099H29.6803C28.6333 20.2823 27.5914 20.4645 26.6159 20.8457C25.6404 21.227 24.7511 21.7996 24.0003 22.5299C22.5868 23.9968 21.8104 25.9629 21.8403 27.9999V30.4999C21.821 31.5136 22.0018 32.5212 22.3725 33.465C22.7431 34.4088 23.2963 35.2702 24.0003 35.9999C24.7454 36.7349 25.63 37.3134 26.602 37.7016C27.574 38.0897 28.6138 38.2795 29.6603 38.2599H31.4903C32.6356 38.244 33.7659 37.9976 34.8139 37.5355C35.862 37.0733 36.8062 36.4048 37.5903 35.5699C38.3345 34.7826 39.2421 34.1678 40.2492 33.7687C41.2564 33.3696 42.3388 33.1959 43.4203 33.2599C43.9127 33.2601 44.4043 33.3002 44.8903 33.3799C45.171 32.6832 45.3788 31.9593 45.5103 31.2199C44.817 31.0962 44.1144 31.0327 43.4103 31.0299C36.0003 31.0299 36.4103 36.0299 31.4903 36.0299H29.6803C28.9459 36.0647 28.2123 35.9472 27.5255 35.6849C26.8387 35.4225 26.2136 35.0209 25.6896 34.5052C25.1655 33.9896 24.7538 33.3712 24.4803 32.6887C24.2067 32.0063 24.0774 31.2747 24.1003 30.5399V27.9999C24.0774 27.265 24.2067 26.5334 24.4803 25.851C24.7538 25.1685 25.1655 24.5501 25.6896 24.0345C26.2136 23.5189 26.8387 23.1172 27.5255 22.8549C28.2123 22.5925 28.9459 22.475 29.6803 22.5099H31.5103C36.4103 22.5099 36.0303 27.5099 43.4303 27.5099C44.1349 27.517 44.8384 27.4534 45.5303 27.3199C45.3941 26.5815 45.1864 25.8581 44.9103 25.1599" fill="black"/>
        <path d="M44.9103 25.1499C44.4243 25.2295 43.9327 25.2696 43.4403 25.2699C42.3616 25.3409 41.2805 25.1745 40.2732 24.7822C39.2659 24.39 38.3569 23.7816 37.6103 22.9999C36.8262 22.1649 35.882 21.4964 34.8339 21.0342C33.7859 20.5721 32.6556 20.3257 31.5103 20.3099H29.6803C28.6333 20.2823 27.5914 20.4645 26.6159 20.8457C25.6404 21.227 24.7511 21.7996 24.0003 22.5299C22.5868 23.9968 21.8104 25.9629 21.8403 27.9999V30.4999C21.821 31.5136 22.0018 32.5212 22.3725 33.465C22.7431 34.4088 23.2963 35.2702 24.0003 35.9999C24.7454 36.7349 25.63 37.3134 26.602 37.7016C27.574 38.0897 28.6138 38.2795 29.6603 38.2599H31.4903C32.6356 38.244 33.7659 37.9976 34.8139 37.5355C35.862 37.0733 36.8062 36.4048 37.5903 35.5699C38.3345 34.7826 39.2421 34.1678 40.2492 33.7687C41.2564 33.3696 42.3388 33.1959 43.4203 33.2599C43.9127 33.2601 44.4043 33.3002 44.8903 33.3799C45.171 32.6832 45.3788 31.9593 45.5103 31.2199C44.817 31.0962 44.1144 31.0327 43.4103 31.0299C36.0003 31.0299 36.4103 36.0299 31.4903 36.0299H29.6803C28.9459 36.0647 28.2123 35.9472 27.5255 35.6849C26.8387 35.4225 26.2136 35.0209 25.6896 34.5052C25.1655 33.9896 24.7538 33.3712 24.4803 32.6887C24.2067 32.0063 24.0774 31.2747 24.1003 30.5399V27.9999C24.0774 27.265 24.2067 26.5334 24.4803 25.851C24.7538 25.1685 25.1655 24.5501 25.6896 24.0345C26.2136 23.5189 26.8387 23.1172 27.5255 22.8549C28.2123 22.5925 28.9459 22.475 29.6803 22.5099H31.5103C36.4103 22.5099 36.0303 27.5099 43.4303 27.5099C44.1349 27.517 44.8384 27.4534 45.5303 27.3199C45.3941 26.5815 45.1864 25.8581 44.9103 25.1599" fill="#74CD4B"/>
    </g>
    <defs>
        <clipPath id="clip0_81_129">
            <rect width="41.73" height="42.53" fill="white" transform="translate(9 8)"/>
        </clipPath>
    </defs>
</svg>
