<svg xmlns="http://www.w3.org/2000/svg" width="60" height="60" viewBox="0 0 60 60" fill="none">
    <path fill-rule="evenodd" clip-rule="evenodd" d="M49.6875 20.625C49.6875 19.3819 49.1944 18.1894 48.315 17.31C47.4356 16.4306 46.2431 15.9375 45 15.9375C37.815 15.9375 22.185 15.9375 15 15.9375C13.7569 15.9375 12.5644 16.4306 11.685 17.31C10.8056 18.1894 10.3125 19.3819 10.3125 20.625C10.3125 25.6144 10.3125 34.3856 10.3125 39.375C10.3125 40.6181 10.8056 41.8106 11.685 42.69C12.5644 43.5694 13.7569 44.0625 15 44.0625C22.185 44.0625 37.815 44.0625 45 44.0625C46.2431 44.0625 47.4356 43.5694 48.315 42.69C49.1944 41.8106 49.6875 40.6181 49.6875 39.375V20.625ZM47.8125 20.625C47.8125 19.8788 47.5163 19.1644 46.9894 18.6356C46.4606 18.1088 45.7463 17.8125 45 17.8125C37.815 17.8125 22.185 17.8125 15 17.8125C14.2538 17.8125 13.5394 18.1088 13.0106 18.6356C12.4838 19.1644 12.1875 19.8788 12.1875 20.625C12.1875 25.6144 12.1875 34.3856 12.1875 39.375C12.1875 40.1213 12.4838 40.8356 13.0106 41.3644C13.5394 41.8913 14.2538 42.1875 15 42.1875C22.185 42.1875 37.815 42.1875 45 42.1875C45.7463 42.1875 46.4606 41.8913 46.9894 41.3644C47.5163 40.8356 47.8125 40.1213 47.8125 39.375V20.625Z" fill="black"/>
    <path fill-rule="evenodd" clip-rule="evenodd" d="M29.9999 27.0524L46.4193 17.9305C46.8711 17.6793 47.443 17.8424 47.6943 18.2943C47.9455 18.7461 47.7824 19.318 47.3305 19.5693L30.4555 28.9443C30.1724 29.1018 29.8274 29.1018 29.5443 28.9443L12.6693 19.5693C12.2174 19.318 12.0543 18.7461 12.3055 18.2943C12.5568 17.8424 13.1286 17.6793 13.5805 17.9305L29.9999 27.0524Z" fill="black"/>
</svg>
